<svg width="22" height="31" viewBox="0 0 22 31" fill="none" xmlns="http://www.w3.org/2000/svg">
<path d="M10.705 30.506C8.58895 30.506 6.77962 29.9233 5.27695 28.758C3.77429 27.5927 2.62429 25.998 1.82695 23.974C1.06029 21.95 0.676953 19.65 0.676953 17.074C0.676953 14.1913 1.35162 11.462 2.70095 8.886C4.05029 6.27933 5.81362 4.194 7.99095 2.63C10.199 1.03533 12.4836 0.237999 14.845 0.237999C16.8383 0.237999 18.3716 0.682666 19.445 1.572C20.5183 2.46133 21.055 3.504 21.055 4.7C21.055 5.40533 20.8403 6.04933 20.411 6.632C20.0123 7.21467 19.4296 7.65933 18.663 7.966C18.571 7.782 18.525 7.49067 18.525 7.092C18.525 6.724 18.571 6.356 18.663 5.988C18.7243 5.49733 18.755 5.14466 18.755 4.93C18.755 4.62333 18.709 4.36267 18.617 4.148C18.1876 3.07467 17.0223 2.538 15.121 2.538C14.5996 2.538 13.9863 2.584 13.281 2.676C11.6556 2.89067 10.0456 3.70333 8.45095 5.114C6.85629 6.494 5.55295 8.22667 4.54095 10.312C3.52895 12.3973 3.02295 14.5287 3.02295 16.706C3.02295 18.6073 3.32962 20.4167 3.94295 22.134C4.58695 23.8207 5.50695 25.1853 6.70295 26.228C7.89895 27.2707 9.32495 27.792 10.981 27.792C13.1276 27.792 14.9063 27.5313 16.317 27.01C17.7583 26.4887 19.169 25.6913 20.549 24.618C20.7023 24.4953 20.871 24.434 21.055 24.434C21.3923 24.434 21.6223 24.6333 21.745 25.032C21.8983 25.768 21.4076 26.5653 20.273 27.424C19.1383 28.2827 17.6663 29.0187 15.857 29.632C14.0476 30.2147 12.3303 30.506 10.705 30.506Z" fill="white"/>
<path d="M5.27695 28.758L4.90926 29.2321L4.90926 29.2321L5.27695 28.758ZM1.82695 23.974L1.26581 24.1866L1.26871 24.1939L1.82695 23.974ZM2.70095 8.886L3.23246 9.16441L3.2338 9.16182L2.70095 8.886ZM7.99095 2.63L8.34099 3.11731L8.34225 3.11641L7.99095 2.63ZM19.445 1.572L19.8278 1.10999L19.8278 1.10999L19.445 1.572ZM20.411 6.632L19.9279 6.27608L19.9217 6.28453L19.9158 6.29319L20.411 6.632ZM18.663 7.966L18.1263 8.23433L18.3732 8.72812L18.8858 8.52308L18.663 7.966ZM18.663 5.988L19.245 6.13352L19.2538 6.09837L19.2583 6.06242L18.663 5.988ZM18.617 4.148L18.0599 4.37083L18.0626 4.37762L18.0655 4.38435L18.617 4.148ZM13.281 2.676L13.2034 2.08104L13.2024 2.08116L13.281 2.676ZM8.45095 5.114L8.8436 5.56773L8.8485 5.5634L8.45095 5.114ZM4.54095 10.312L4.00116 10.05L4.00116 10.05L4.54095 10.312ZM3.94295 22.134L3.37778 22.3358L3.38242 22.348L3.94295 22.134ZM16.317 27.01L16.1129 26.4458L16.109 26.4472L16.317 27.01ZM20.549 24.618L20.9174 25.0917L20.9238 25.0865L20.549 24.618ZM21.745 25.032L22.3323 24.9096L22.3266 24.8823L22.3184 24.8555L21.745 25.032ZM20.273 27.424L20.635 27.9024L20.635 27.9024L20.273 27.424ZM15.857 29.632L16.0409 30.2032L16.0496 30.2002L15.857 29.632ZM10.705 29.906C8.70623 29.906 7.03023 29.3584 5.64465 28.2839L4.90926 29.2321C6.52901 30.4883 8.47168 31.106 10.705 31.106V29.906ZM5.64465 28.2839C4.23887 27.1937 3.14881 25.6925 2.3852 23.7541L1.26871 24.1939C2.09977 26.3035 3.30971 27.9917 4.90926 29.2321L5.64465 28.2839ZM2.38805 23.7615C1.65148 21.8169 1.27695 19.5909 1.27695 17.074H0.0769531C0.0769531 19.7091 0.469088 22.0831 1.26586 24.1865L2.38805 23.7615ZM1.27695 17.074C1.27695 14.2892 1.9277 11.6553 3.23245 9.1644L2.16945 8.60759C0.775537 11.2687 0.0769531 14.0935 0.0769531 17.074H1.27695ZM3.2338 9.16182C4.54389 6.63096 6.24748 4.6211 8.34099 3.11731L7.64091 2.14269C5.37976 3.7669 3.55668 5.92771 2.16811 8.61017L3.2338 9.16182ZM8.34225 3.11641C10.4643 1.58384 12.6284 0.837999 14.845 0.837999V-0.362001C12.3388 -0.362001 9.93365 0.486821 7.63966 2.14359L8.34225 3.11641ZM14.845 0.837999C16.7574 0.837999 18.1344 1.26535 19.0621 2.03401L19.8278 1.10999C18.6088 0.0999834 16.9191 -0.362001 14.845 -0.362001V0.837999ZM19.0621 2.03401C20.0233 2.83038 20.455 3.71318 20.455 4.7H21.655C21.655 3.29482 21.0133 2.09229 19.8278 1.10999L19.0621 2.03401ZM20.455 4.7C20.455 5.2737 20.2834 5.79364 19.9279 6.27608L20.894 6.98792C21.3972 6.30503 21.655 5.53696 21.655 4.7H20.455ZM19.9158 6.29319C19.595 6.76196 19.1155 7.13874 18.4401 7.40891L18.8858 8.52308C19.7437 8.17992 20.4295 7.66737 20.9061 6.97081L19.9158 6.29319ZM19.1996 7.69767C19.1725 7.64343 19.125 7.46914 19.125 7.092H17.925C17.925 7.51219 17.9694 7.92057 18.1263 8.23433L19.1996 7.69767ZM19.125 7.092C19.125 6.77455 19.1646 6.4554 19.245 6.13352L18.0809 5.84248C17.9773 6.2566 17.925 6.67345 17.925 7.092H19.125ZM19.2583 6.06242C19.3198 5.57045 19.355 5.18535 19.355 4.93H18.155C18.155 5.10398 18.1288 5.42421 18.0676 5.91358L19.2583 6.06242ZM19.355 4.93C19.355 4.56629 19.3008 4.22044 19.1684 3.91165L18.0655 4.38435C18.1171 4.5049 18.155 4.68038 18.155 4.93H19.355ZM19.174 3.92516C18.6022 2.49565 17.0913 1.938 15.121 1.938V3.138C16.9533 3.138 17.773 3.65368 18.0599 4.37083L19.174 3.92516ZM15.121 1.938C14.5663 1.938 13.9258 1.9868 13.2034 2.08104L13.3586 3.27096C14.0467 3.1812 14.633 3.138 15.121 3.138V1.938ZM13.2024 2.08116C11.4279 2.31554 9.71109 3.19819 8.05341 4.6646L8.8485 5.5634C10.3801 4.20848 11.8834 3.4658 13.3595 3.27083L13.2024 2.08116ZM8.05833 4.6603C6.39625 6.09863 5.04516 7.89877 4.00116 10.05L5.08075 10.574C6.06075 8.55456 7.31632 6.88936 8.84358 5.5677L8.05833 4.6603ZM4.00116 10.05C2.95215 12.2116 2.42295 14.4321 2.42295 16.706H3.62295C3.62295 14.6252 4.10575 12.583 5.08075 10.574L4.00116 10.05ZM2.42295 16.706C2.42295 18.6731 2.74047 20.551 3.37791 22.3358L4.508 21.9322C3.91877 20.2824 3.62295 18.5415 3.62295 16.706H2.42295ZM3.38242 22.348C4.0566 24.1137 5.0289 25.5646 6.30867 26.6803L7.09723 25.7757C5.98501 24.8061 5.1173 23.5276 4.50348 21.92L3.38242 22.348ZM6.30867 26.6803C7.61904 27.8226 9.18691 28.392 10.981 28.392V27.192C9.463 27.192 8.17887 26.7187 7.09723 25.7757L6.30867 26.6803ZM10.981 28.392C13.1708 28.392 15.0258 28.1268 16.5249 27.5728L16.109 26.4472C14.7868 26.9358 13.0845 27.192 10.981 27.192V28.392ZM16.521 27.5742C18.0292 27.0287 19.4945 26.1982 20.9173 25.0916L20.1806 24.1444C18.8434 25.1844 17.4874 25.9486 16.1129 26.4458L16.521 27.5742ZM20.9238 25.0865C20.9784 25.0428 21.0167 25.034 21.055 25.034V23.834C20.7252 23.834 20.4262 23.9478 20.1741 24.1495L20.9238 25.0865ZM21.055 25.034C21.0676 25.034 21.0761 25.0349 21.0813 25.0358C21.0864 25.0366 21.0887 25.0374 21.0889 25.0375C21.0891 25.0375 21.0883 25.0372 21.0873 25.0366C21.0863 25.0361 21.0863 25.0359 21.0875 25.0369C21.0916 25.0405 21.1314 25.0782 21.1715 25.2085L22.3184 24.8555C22.2358 24.5872 22.0993 24.3258 21.8734 24.1301C21.6373 23.9254 21.3512 23.834 21.055 23.834V25.034ZM21.1576 25.1544C21.2323 25.5129 21.0275 26.1006 19.9109 26.9456L20.635 27.9024C21.7878 27.0301 22.5643 26.0231 22.3323 24.9096L21.1576 25.1544ZM19.9109 26.9456C18.8417 27.7547 17.4322 28.4645 15.6643 29.0638L16.0496 30.2002C17.9003 29.5729 19.4349 28.8107 20.635 27.9024L19.9109 26.9456ZM15.673 29.0609C13.9133 29.6276 12.2583 29.906 10.705 29.906V31.106C12.4023 31.106 14.1819 30.8018 16.0409 30.2031L15.673 29.0609Z" fill="white"/>
</svg>
