<svg width="46" height="45" viewBox="0 0 46 45" fill="none" xmlns="http://www.w3.org/2000/svg">
<rect x="0.296631" width="45.6716" height="45" rx="4" fill="white"/>
<path d="M19.6789 31V30.055H19.9939C20.2879 30.055 20.5609 30.02 20.8129 29.95C21.0649 29.88 21.2679 29.74 21.4219 29.53C21.5759 29.32 21.6529 29.005 21.6529 28.585L21.6529 20.857H19.7629V19.744H21.6529V18.778C21.6529 17.504 21.9889 16.531 22.6609 15.859C23.3329 15.173 24.2919 14.83 25.5379 14.83C26.3079 14.83 26.9169 14.9 27.3649 15.04C27.8129 15.166 28.1349 15.341 28.3309 15.565C28.5269 15.775 28.6249 16.027 28.6249 16.321C28.6249 16.587 28.5409 16.811 28.3729 16.993C28.2189 17.175 27.9949 17.315 27.7009 17.413C27.4209 17.511 27.0779 17.56 26.6719 17.56C26.6719 17.294 26.6299 17.028 26.5459 16.762C26.4619 16.496 26.3289 16.279 26.1469 16.111C25.9649 15.943 25.7059 15.859 25.3699 15.859C24.8379 15.859 24.4669 16.083 24.2569 16.531C24.0609 16.965 23.9629 17.63 23.9629 18.526V19.744H26.9029V20.857H23.9629L23.9629 28.585C23.9629 29.005 24.0399 29.32 24.1939 29.53C24.3619 29.74 24.5719 29.88 24.8239 29.95C25.0759 30.02 25.3419 30.055 25.6219 30.055H26.4829V31L19.6789 31Z" fill="black"/>
</svg>
