<svg width="46" height="45" viewBox="0 0 46 45" fill="none" xmlns="http://www.w3.org/2000/svg">
<rect x="0.046875" width="45.6716" height="45" rx="4" fill="white"/>
<rect x="9.29858" y="11.5021" width="29.4328" height="21" rx="2" fill="black"/>
<rect x="9.29858" y="11.5021" width="29.4328" height="21" rx="2" fill="black"/>
<rect x="12.3433" y="10.5021" width="23.3433" height="26" fill="white"/>
<rect x="16.4031" y="20.5021" width="15.2239" height="3" rx="1.5" fill="black"/>
<path d="M11.3284 11.5021H15.9179C16.7463 11.5021 17.4179 12.1737 17.4179 13.0021C17.4179 13.8306 16.7463 14.5021 15.9179 14.5021H11.3284V11.5021Z" fill="black"/>
<path d="M11.3284 29.5021H15.9179C16.7463 29.5021 17.4179 30.1737 17.4179 31.0021C17.4179 31.8306 16.7463 32.5021 15.9179 32.5021H11.3284V29.5021Z" fill="black"/>
<path d="M36.7014 14.5021L32.1119 14.5021C31.2834 14.5021 30.6119 13.8306 30.6119 13.0021C30.6119 12.1737 31.2834 11.5021 32.1119 11.5021H36.7014V14.5021Z" fill="black"/>
<path d="M36.7014 32.5021H32.1119C31.2834 32.5021 30.6119 31.8306 30.6119 31.0021C30.6119 30.1737 31.2834 29.5021 32.1119 29.5021H36.7014V32.5021Z" fill="black"/>
</svg>
