<svg width="47" height="45" viewBox="0 0 47 45" fill="none" xmlns="http://www.w3.org/2000/svg">
<rect x="0.838867" width="45.6716" height="45" rx="4" fill="white"/>
<rect x="18.418" y="29" width="19.2836" height="3" rx="1.5" fill="black"/>
<rect x="18.418" y="29" width="19.2836" height="3" rx="1.5" fill="black"/>
<rect x="8.26855" y="27" width="7.10448" height="7" rx="3.5" fill="black"/>
<rect x="9.79102" y="28.5" width="4.0597" height="4" rx="2" fill="white"/>
<rect x="9.79102" y="28.5" width="4.0597" height="4" rx="2" fill="white"/>
<rect x="18.418" y="21" width="19.2836" height="3" rx="1.5" fill="black"/>
<rect x="18.418" y="21" width="19.2836" height="3" rx="1.5" fill="black"/>
<rect x="8.26855" y="19" width="7.10448" height="7" rx="3.5" fill="black"/>
<rect x="9.79102" y="20.5" width="4.0597" height="4" rx="2" fill="white"/>
<rect x="9.79102" y="20.5" width="4.0597" height="4" rx="2" fill="white"/>
<rect x="18.418" y="13" width="19.2836" height="3" rx="1.5" fill="black"/>
<rect x="18.418" y="13" width="19.2836" height="3" rx="1.5" fill="black"/>
<rect x="8.26855" y="11" width="7.10448" height="7" rx="3.5" fill="black"/>
<rect x="9.79102" y="12.5" width="4.0597" height="4" rx="2" fill="white"/>
<rect x="9.79102" y="12.5" width="4.0597" height="4" rx="2" fill="white"/>
</svg>
