<svg width="47" height="45" viewBox="0 0 47 45" fill="none" xmlns="http://www.w3.org/2000/svg">
<rect x="0.671631" width="45.6716" height="45" rx="4" fill="white"/>
<path d="M26.9733 15.0703H28.942L28.942 25.1704C28.942 26.2915 28.6925 27.2246 28.1935 27.9697C27.6945 28.7148 27.0314 29.2754 26.2042 29.6514C25.3839 30.0205 24.4918 30.2051 23.528 30.2051C22.5162 30.2051 21.6002 30.0205 20.7799 29.6514C19.9664 29.2754 19.3204 28.7148 18.8419 27.9697C18.3702 27.2246 18.1344 26.2915 18.1344 25.1704L18.1344 15.0703H20.0929L20.0929 25.1704C20.0929 25.9497 20.2365 26.5923 20.5236 27.0981C20.8107 27.604 21.2106 27.98 21.7233 28.2261C22.2428 28.4722 22.8444 28.5952 23.528 28.5952C24.2184 28.5952 24.82 28.4722 25.3326 28.2261C25.8522 27.98 26.2555 27.604 26.5426 27.0981C26.8297 26.5923 26.9733 25.9497 26.9733 25.1704L26.9733 15.0703Z" fill="black"/>
<path d="M16.6989 32.0508H30.316V33.0762H16.6989V32.0508Z" fill="black"/>
</svg>
