<svg width="47" height="45" viewBox="0 0 47 45" fill="none" xmlns="http://www.w3.org/2000/svg">
<rect x="0.880127" width="45.6716" height="45" rx="4" fill="white"/>
<path d="M25.5001 18.9053L23.5724 30L21.7164 30L23.6442 18.9053H25.5001ZM24.0133 15.9932C24.0133 15.6719 24.1124 15.4053 24.3107 15.1934C24.5158 14.9746 24.7789 14.8618 25.1002 14.855C25.4215 14.8481 25.6847 14.9473 25.8898 15.1523C26.1017 15.3574 26.2042 15.6172 26.1974 15.9316C26.1974 16.2461 26.0914 16.5093 25.8795 16.7212C25.6744 16.9263 25.4147 17.0322 25.1002 17.0391C24.7858 17.0459 24.526 16.9536 24.3209 16.7622C24.1159 16.564 24.0133 16.3076 24.0133 15.9932Z" fill="black"/>
</svg>
