<svg width="45" height="45" viewBox="0 0 45 45" fill="none" xmlns="http://www.w3.org/2000/svg">
<rect width="45" height="45" rx="4" fill="white"/>
<path d="M22.9512 23.6528L19.106 23.6528L19.0854 21.2944L22.2026 21.2944C22.7632 21.2944 23.2109 21.2329 23.5459 21.1099C23.8809 20.98 24.1235 20.792 24.2739 20.5459C24.4312 20.2998 24.5098 19.9922 24.5098 19.623C24.5098 19.1992 24.4312 18.8574 24.2739 18.5977C24.1167 18.3379 23.8672 18.1499 23.5254 18.0337C23.1904 17.9106 22.7563 17.8491 22.2231 17.8491L20.4595 17.8491L20.4595 30H16.8604L16.8604 15.0703H22.2231C23.146 15.0703 23.9697 15.1558 24.6943 15.3267C25.4189 15.4907 26.0342 15.7437 26.54 16.0854C27.0527 16.4272 27.4424 16.8579 27.709 17.3774C27.9756 17.8901 28.1089 18.4951 28.1089 19.1924C28.1089 19.8008 27.979 20.3716 27.7192 20.9048C27.4595 21.438 27.0254 21.8721 26.417 22.207C25.8154 22.5352 24.9917 22.7061 23.9458 22.7197L22.9512 23.6528ZM22.8076 30L18.2344 30L19.4648 27.2314L22.8076 27.2314C23.2998 27.2314 23.6929 27.1563 23.9868 27.0059C24.2876 26.8486 24.5029 26.6436 24.6328 26.3906C24.7695 26.1309 24.8379 25.8438 24.8379 25.5293C24.8379 25.1465 24.7729 24.8149 24.6431 24.5347C24.52 24.2544 24.3218 24.0391 24.0483 23.8887C23.7749 23.7314 23.4092 23.6528 22.9512 23.6528L19.9263 23.6528L19.9468 21.2944L23.5664 21.2944L24.4072 22.2378C25.4053 22.1968 26.1948 22.3369 26.7759 22.6582C27.3638 22.9795 27.7842 23.4033 28.0371 23.9297C28.29 24.4561 28.4165 25.0063 28.4165 25.5806C28.4165 26.5581 28.2046 27.375 27.7808 28.0313C27.3638 28.6875 26.7383 29.1797 25.9043 29.5078C25.0703 29.8359 24.0381 30 22.8076 30Z" fill="black"/>
</svg>
